<?xml version="1.0" encoding="UTF-8" standalone="no"?>
<svg
   xmlns:dc="http://purl.org/dc/elements/1.1/"
   xmlns:cc="http://creativecommons.org/ns#"
   xmlns:rdf="http://www.w3.org/1999/02/22-rdf-syntax-ns#"
   xmlns:svg="http://www.w3.org/2000/svg"
   xmlns="http://www.w3.org/2000/svg"
   xmlns:sodipodi="http://sodipodi.sourceforge.net/DTD/sodipodi-0.dtd"
   xmlns:inkscape="http://www.inkscape.org/namespaces/inkscape"
   sodipodi:docname="logo.svg"
   inkscape:version="1.0beta2 (2b71d25, 2019-12-03)"
   id="svg8"
   version="1.1"
   viewBox="0 0 297 210"
   height="210mm"
   width="297mm">
  <defs
     id="defs2" />
  <sodipodi:namedview
     inkscape:window-maximized="0"
     inkscape:window-y="23"
     inkscape:window-x="0"
     inkscape:window-height="782"
     inkscape:window-width="1440"
     showgrid="true"
     inkscape:document-rotation="0"
     inkscape:current-layer="layer1"
     inkscape:document-units="mm"
     inkscape:cy="557.14286"
     inkscape:cx="388.57143"
     inkscape:zoom="0.35"
     inkscape:pageshadow="2"
     inkscape:pageopacity="0.0"
     borderopacity="1.0"
     bordercolor="#666666"
     pagecolor="#ffffff"
     id="base">
    <inkscape:grid
       id="grid76"
       type="xygrid" />
  </sodipodi:namedview>
  <metadata
     id="metadata5">
    <rdf:RDF>
      <cc:Work
         rdf:about="">
        <dc:format>image/svg+xml</dc:format>
        <dc:type
           rdf:resource="http://purl.org/dc/dcmitype/StillImage" />
        <dc:title></dc:title>
      </cc:Work>
    </rdf:RDF>
  </metadata>
  <g
     id="layer1"
     inkscape:groupmode="layer"
     inkscape:label="Layer 1">
    <path
       inkscape:connector-curvature="0"
       d="m 98.770661,58.263448 c -6.485411,-0.06788 -12.952052,0.0181 -19.377094,0.912524 -1.752819,0.244009 -3.522733,0.418941 -5.24356,0.83207 -5.003217,1.201158 -5.788318,1.923322 -10.313386,4.208785 -1.394849,1.172128 -3.069633,2.075397 -4.184547,3.516389 -3.572616,4.617495 -5.057431,11.010561 -6.394543,16.431461 -3.006444,12.188708 -4.537622,24.682243 -6.265783,37.094323 -1.36771,10.77629 -2.648225,21.57545 -3.311088,32.42212 -0.19037,3.11509 -0.314304,6.23393 -0.493334,9.34969 -0.07293,1.14027 -0.145865,2.28054 -0.218797,3.42081 0,0 8.649583,0.0423 8.649583,0.0423 v 0 c 0.0387,-1.14143 0.07739,-2.28287 0.116091,-3.4243 0.465175,-13.93202 1.03682,-27.8671 2.819276,-41.70926 1.616088,-12.3953 3.134648,-24.877838 6.488001,-36.959353 1.49511,-5.386607 3.272071,-11.469695 6.985349,-15.925763 1.135822,-1.363027 2.770267,-2.217515 4.155403,-3.326275 1.630575,-0.785969 3.201723,-1.709508 4.891723,-2.357909 3.981357,-1.527527 6.512697,-1.853165 10.682882,-2.385266 1.683232,-0.214776 4.513252,1.077635 5.063221,-0.527648 0.519771,-1.517145 -3.206552,-0.105773 -4.805953,-0.223279 -0.633881,-0.04657 1.271156,0.0069 1.906733,0.01027 0,0 8.849823,-1.401676 8.849823,-1.401676 z"
       id="path96"
       style="fill:#000000;fill-opacity:1;fill-rule:nonzero;stroke:none;stroke-width:0.264583" />
    <path
       inkscape:connector-curvature="0"
       d="m 32.461435,130.05636 c 2.968268,-9.23494 11.269575,-14.30787 18.955316,-19.30271 5.636085,-3.54245 11.461731,-6.76522 17.268687,-10.0143 0,0 -8.294909,-0.878391 -8.294909,-0.878391 v 0 c -5.74661,3.301941 -11.517035,6.566581 -17.140148,10.077671 -8.33188,5.40945 -16.270356,10.30283 -19.771341,20.11773 0,0 8.982395,0 8.982395,0 z"
       id="path98"
       style="fill:#000000;fill-opacity:1;fill-rule:nonzero;stroke:none;stroke-width:0.264583" />
    <path
       inkscape:connector-curvature="0"
       d="m 58.997672,126.03064 c -0.03871,2.34051 0.195104,4.65105 0.701908,6.93338 1.015457,4.07749 2.634747,2.55086 9.897888,0.99914 0.597005,-0.12754 0.370813,-1.16399 0.522314,-1.75537 0.240175,-0.93752 0.911883,-4.15296 1.092086,-5.00135 0.907491,-4.92633 2.086533,-9.78634 3.295875,-14.6444 0.481769,-1.86185 0.845042,-3.7839 1.528902,-5.58546 0,0 -8.963789,-0.30049 -8.963789,-0.30049 v 0 c -0.594143,1.85644 -0.99499,3.7763 -1.408012,5.67938 -1.106599,4.87847 -2.209705,9.75427 -3.188179,14.66054 -0.254728,1.10434 -0.824399,3.72994 -1.217941,4.87944 -0.162573,0.47486 -1.114393,1.25116 -0.626551,1.36922 2.769134,0.67019 5.686628,0.36237 8.529944,0.54355 -0.09622,-0.0911 -0.229912,-0.15456 -0.288666,-0.27334 -0.120107,-0.24281 -0.154556,-0.51928 -0.231833,-0.77892 -0.556456,-2.20383 -0.801426,-4.45045 -0.639292,-6.72532 0,0 -9.004654,0 -9.004654,0 z"
       id="path100"
       style="fill:#000000;fill-opacity:1;fill-rule:nonzero;stroke:none;stroke-width:0.264583" />
    <path
       inkscape:connector-curvature="0"
       d="m 88.139319,108.61667 c -1.493811,3.29261 -2.757342,6.6806 -4.150913,10.0158 -2.070796,5.04051 -4.059253,10.11485 -6.239414,15.10982 -2.321399,4.9264 -5.366115,9.45807 -8.153099,14.12369 -1.105561,1.84554 -2.231191,3.69066 -2.982044,5.71477 -0.33011,1.25391 0.630391,2.03614 1.568098,2.66232 4.121428,2.08312 9.425633,0.95691 13.650957,0.56975 0.361691,-0.0331 3.953722,-1.52507 4.174691,-1.61497 5.540446,-2.26453 6.5171,-4.43766 7.683164,-10.09066 0.367726,-2.77092 0.313396,-5.56778 0.301509,-8.35462 0,0 -8.725236,0.004 -8.725236,0.004 v 0 c 0.01037,2.72445 0.05927,5.45973 -0.339609,8.16471 -1.237218,5.47333 -2.329426,7.10968 -7.640336,9.22935 -0.729472,0.27778 -1.450112,0.57995 -2.188413,0.83332 -0.676286,0.23209 -2.757379,0.50061 -2.052789,0.62218 2.364513,0.40795 4.797097,0.14338 7.193473,0.26475 0.417158,0.0211 -0.836985,0.0782 -1.252556,0.0362 -0.352261,-0.0356 -0.689959,-0.16191 -1.02811,-0.26685 -0.287967,-0.0894 -0.565208,-0.21022 -0.847812,-0.31533 -0.53607,-0.29106 -1.700858,-0.65136 -1.480439,-1.4357 0.664028,-1.96403 1.731232,-3.75239 2.736675,-5.55509 2.745079,-4.72087 5.795944,-9.27952 8.118676,-14.23378 2.158799,-5.01556 4.104056,-10.12055 6.312459,-15.11533 1.417042,-3.32501 2.625079,-6.74405 4.303313,-9.95198 0,0 -8.962245,-0.41583 -8.962245,-0.41583 z"
       id="path102"
       style="fill:#000000;fill-opacity:1;fill-rule:nonzero;stroke:none;stroke-width:0.264583" />
    <path
       inkscape:connector-curvature="0"
       d="m 102.27194,80.062328 c 1.60502,4.531037 2.04637,9.347198 2.47808,14.101739 0.59147,6.016593 0.29986,12.047373 -0.14373,18.059523 -0.47489,6.14362 -1.20253,12.26241 -1.90154,18.38337 0,0 8.77972,0.0886 8.77972,0.0886 v 0 c 0.54214,-6.14274 1.27685,-12.2659 1.81789,-18.40886 0.43368,-6.05952 0.75781,-12.13548 0.14334,-18.198975 -0.41031,-4.810236 -0.88824,-9.647025 -2.17737,-14.314937 0,0 -8.99639,0.28956 -8.99639,0.28956 z"
       id="path104"
       style="fill:#000000;fill-opacity:1;fill-rule:nonzero;stroke:none;stroke-width:0.264583" />
    <path
       inkscape:connector-curvature="0"
       d="m 129.76471,98.328923 c -8.07882,0.180179 -16.11417,-0.761402 -24.13237,-1.610085 -4.99302,-0.507126 -2.59958,-0.270713 -7.18002,-0.712411 0,0 -8.566992,1.275675 -8.566992,1.275675 v 0 c 4.673804,0.417735 2.236743,0.191593 7.310771,0.682895 7.885431,0.815626 15.777361,1.804458 23.718791,1.765601 0,0 8.84982,-1.401675 8.84982,-1.401675 z"
       id="path106"
       style="fill:#000000;fill-opacity:1;fill-rule:nonzero;stroke:none;stroke-width:0.264583" />
    <path
       inkscape:connector-curvature="0"
       d="m 130.73232,118.63028 c 5.0827,-0.0221 10.16543,-0.0253 15.24816,-0.0216 0.86792,0.002 3.4715,-0.0127 2.60376,0.005 -2.21882,0.0443 -4.44523,-0.1018 -6.65734,0.0763 -0.43905,0.0353 0.98261,0.0253 1.27222,0.35718 0.2626,0.30093 0.2187,0.81985 0.0826,1.19534 -0.48114,1.32743 -1.10147,2.61952 -1.88991,3.7908 -1.576,2.34127 -3.44901,4.46829 -5.17352,6.70243 -2.66494,2.79959 -5.20019,5.72862 -7.99483,8.39875 -16.94629,16.1913 -36.930196,28.91726 -56.807715,41.14195 -0.497477,0.29103 -11.656134,6.90546 -13.574223,7.76666 -0.508622,0.22837 -2.21302,0.26783 -1.663668,0.17267 4.083714,-0.7074 8.373705,-0.59729 12.270052,-2.00995 3.098752,-1.12348 5.407729,-3.78458 8.261501,-5.43397 4.078782,-2.3574 8.341275,-4.3816 12.511915,-6.57239 15.369678,-6.14224 19.285088,-8.18208 35.631378,-12.68152 6.80731,-1.87377 13.71045,-3.388 20.60984,-4.88764 17.118,-3.72074 34.42065,-6.51845 51.71387,-9.26714 0,0 -7.24713,-1.0276 -7.24713,-1.0276 v 0 c -16.99941,2.86554 -34.01592,5.75078 -50.86247,9.43363 -6.95599,1.52066 -13.92082,3.03192 -20.78816,4.9128 -16.05832,4.39819 -21.080807,6.7903 -36.316849,12.71927 -4.343614,2.19516 -8.763934,4.24471 -13.030843,6.58547 -3.063634,1.68067 -7.59516,2.24539 -8.943271,5.46922 -0.819719,1.96025 3.155836,2.90138 5.006248,3.94566 0.354258,0.19992 0.765095,-0.28697 1.117819,-0.48958 1.933218,-1.11051 12.236027,-7.4633 12.890812,-7.86541 19.717991,-12.55452 39.625054,-25.37755 56.824184,-41.32463 2.90745,-2.6958 5.58411,-5.63027 8.37617,-8.4454 0.95259,-1.14401 9.67612,-9.79765 7.82744,-13.31191 -0.2351,-0.44692 -0.88004,-0.58582 -1.38414,-0.61586 -2.18152,-0.12997 -9.36726,-0.10704 -13.25398,-0.1 -5.17359,0.004 -10.34718,-9e-5 -15.52073,-0.0216 0,0 8.86081,1.40341 8.86081,1.40341 z"
       id="path110"
       style="fill:#000000;fill-opacity:1;fill-rule:nonzero;stroke:none;stroke-width:0.264583" />
    <path
       inkscape:connector-curvature="0"
       d="m 138.37267,93.524691 c 0.0392,1.613135 0.007,3.226794 0.0168,4.84025 0.0157,1.768429 0.0169,3.537059 -0.01,5.305379 -0.0892,0.89078 0.24265,1.70724 0.52691,2.52888 0.39581,0.82123 0.75201,1.64842 1.27884,2.39692 0.6135,0.92492 1.14025,1.89852 1.78723,2.80411 0.25362,0.33731 0.44745,0.71048 0.63483,1.08653 0,0 9.01853,-0.4568 9.01853,-0.4568 v 0 c -0.23845,-0.38642 -0.37768,-0.81782 -0.66706,-1.17433 -0.62637,-0.93359 -1.29104,-1.82822 -1.78154,-2.84746 -0.55149,-0.6561 -0.85774,-1.37654 -1.23814,-2.12517 -0.27611,-0.71852 -0.6333,-1.4234 -0.56873,-2.21268 -0.0268,-1.76832 -0.0256,-3.53695 -0.01,-5.305379 0.01,-1.613456 -0.0224,-3.227115 0.0168,-4.84025 0,0 -9.00466,0 -9.00466,0 z"
       id="path112"
       style="fill:#000000;fill-opacity:1;fill-rule:nonzero;stroke:none;stroke-width:0.264583" />
    <path
       inkscape:connector-curvature="0"
       d="m 140.30492,83.859081 c 1.72637,0.0024 3.40389,0.158771 5.04674,-0.427641 1.42306,-0.51253 2.54428,-0.80531 3.13582,-2.29498 0.0581,-0.235524 0.1162,-0.471048 0.1743,-0.706573 0,0 -8.98871,-0.248454 -8.98871,-0.248454 v 0 c -0.0591,0.177607 -0.11812,0.355211 -0.17718,0.532818 -0.68902,0.967306 -1.97494,1.187783 -3.04003,1.55249 -1.66228,0.321575 -3.35956,0.150511 -5.04473,0.183701 0,0 8.89379,1.408639 8.89379,1.408639 z"
       id="path114"
       style="fill:#000000;fill-opacity:1;fill-rule:nonzero;stroke:none;stroke-width:0.264583" />
    <path
       inkscape:connector-curvature="0"
       d="m 166.62586,123.21194 c 1.25592,-1.16088 2.8379,-1.6943 4.46227,-2.09534 3.12581,-0.18095 7.6733,-0.44617 -6.957,0.0141 -0.19574,0.006 0.37864,0.10967 0.55255,0.19972 0.42428,0.2197 0.61929,0.48064 0.95157,0.82154 0.82235,1.25837 1.39881,2.69303 1.84615,4.1276 0.58813,2.07726 0.25032,4.17904 -0.12516,6.25631 -0.51917,1.89708 -0.90486,3.85099 -1.9688,5.53112 -0.81824,0.82647 -1.79023,1.47687 -2.79195,2.05194 -0.67076,0.48746 -1.2638,0.54844 -2.05573,0.55133 -0.54136,0.004 -1.08274,0.006 -1.62412,0.005 -0.18408,-2.7e-4 -0.73632,-0.002 -0.55224,-0.002 8.56725,-0.0142 11.17074,0.53241 7.92928,-0.10712 -1.17357,-0.28677 -1.87424,-1.32625 -2.54751,-2.24597 -0.69095,-0.93977 -1.01202,-2.0296 -1.17048,-3.16779 -0.14705,-1.66352 -0.13024,-3.33766 -0.11499,-5.00618 0.0728,-0.95182 0.47359,-1.83121 0.66542,-2.75632 0.0656,-0.53859 0.0364,-0.27544 0.0886,-0.78935 0,0 -9.02656,-0.0921 -9.02656,-0.0921 v 0 c -0.0471,0.45631 -0.0169,0.22895 -0.0906,0.68209 -0.23926,0.97636 -0.5564,1.94088 -0.59786,2.95431 0.0104,1.7112 -0.0403,3.42566 0.0701,5.13411 0.18276,1.27328 0.49105,2.51087 1.20341,3.60508 0.75578,1.05139 1.46733,2.16285 2.58972,2.86628 3.82511,1.21609 8.09617,0.3526 12.09767,0.24794 0.78743,-0.14018 1.43337,-0.53194 2.09448,-0.97376 1.03674,-0.71352 2.11691,-1.39589 2.80628,-2.48586 0.97405,-1.82383 1.39273,-3.85485 1.89859,-5.84551 0.39106,-2.21463 0.75763,-4.46174 0.20909,-6.68767 -0.49242,-1.55269 -1.13874,-3.05123 -1.87349,-4.50254 -0.22492,-0.27905 -0.69744,-0.88926 -0.96993,-1.13384 -2.91141,-2.61319 -7.77717,-1.14848 -11.43847,-0.41259 -1.68372,0.53531 -3.26611,1.29159 -4.54096,2.54849 0,0 8.9807,0.7068 8.9807,0.7068 z"
       id="path136"
       style="fill:#000000;fill-opacity:1;fill-rule:nonzero;stroke:none;stroke-width:0.264583" />
    <path
       inkscape:connector-curvature="0"
       d="m 276.55991,162.52976 c -0.86294,-1.25992 -1.95607,-2.38991 -2.58879,-3.77976 -0.93184,-2.04683 -1.3715,-4.28373 -2.05724,-6.4256 -2.63052,-3.7124 -5.88174,-7.05528 -7.89157,-11.13722 -1.87576,-3.80969 -2.04627,-8.26884 -3.60768,-12.21779 -2.17029,-5.48884 -6.14945,-10.28178 -7.55526,-16.01426 -1.13764,-4.63896 0.076,-9.55254 0.11405,-14.328815 -1.02023,-16.882917 -1.96182,-8.299037 2.04638,-22.588823 0.63003,-2.24617 1.49178,-4.452866 1.78418,-6.767327 0.0629,-0.497912 -0.6988,-0.799095 -0.76544,-1.296522 -0.91905,-6.86013 1.6003,0.02585 -1.05113,-6.059313 -1.05162,-1.748904 -1.71977,-3.795813 -3.15486,-5.246708 -9.96545,-10.075238 -5.74755,-2.945869 -15.90176,-10.506491 -3.06018,-2.278554 -7.44007,-7.937608 -9.40469,-11.199701 -1.35501,-2.249898 -2.37682,-4.68435 -3.56522,-7.026526 -3.71,-0.655667 -7.42,-1.311331 -11.13,-1.966995 -3.18028,-1.067518 -6.25845,-2.50991 -9.54083,-3.202555 -1.62673,-0.343271 -10.27624,0.06292 -12.52119,-1.503935 -3.18596,-2.223636 -0.47625,-5.449588 -2.58995,-2.301474 -2.8502,-4.190782 -1.12774,-2.499353 -5.04491,-5.196074 -30.29969,-3.486818 -35.2308,39.363419 -4.93111,42.850236 v 0 c -0.12079,-3.04084 -0.79505,-2.794902 1.5748,-1.468345 1.7506,-0.02622 3.55225,0.341866 5.2518,-0.07864 1.69168,-0.418555 3.01921,-1.781513 4.65834,-2.373328 1.34899,-0.487058 2.80519,-0.605713 4.22133,-0.832715 2.57174,-0.412242 6.08608,-1.153822 8.62403,0.224705 0.72259,0.392488 0.83316,1.417958 1.24973,2.126938 1.40669,-0.139592 2.8824,-0.87584 4.22007,-0.418777 6.51449,2.225907 6.82994,4.608382 10.29827,9.680286 1.29343,1.891445 2.99817,3.544178 3.93986,5.633135 0.60702,1.346555 -0.37906,3.060295 0.40975,4.412171 1.07735,1.115224 2.99408,1.813425 3.23203,3.345667 0.89425,5.75847 -5.71177,5.858451 1.74232,9.025143 7.21376,3.064592 4.01335,-6.624931 14.16812,3.076115 2.93272,2.801691 3.18243,7.461477 4.77364,11.192218 10.24817,20.93582 5.40046,4.79664 3.75525,29.83463 -0.26696,4.06269 1.58703,8.2283 0.67292,12.19581 -2.4057,10.44153 -6.74259,8.44586 -10.72799,16.56088 -0.5556,1.13131 -0.068,2.51984 -0.10194,3.77976 0,26.44204 37.39469,26.44204 37.39469,0 z"
       id="path236"
       style="fill:#000000;fill-opacity:1;fill-rule:nonzero;stroke:none;stroke-width:0.264583" />
    <path
       inkscape:connector-curvature="0"
       d="m 11.339286,52.086851 c 13.059324,-4.466664 20.67395,-7.336264 35.913543,-10.470581 10.24615,-2.107317 20.680187,-3.166671 31.017537,-4.767792 16.86936,-2.612845 39.512114,-6.821022 57.063494,-7.364378 4.76486,-0.147508 9.50014,0.806119 14.25021,1.20918 2.68913,1.419672 5.37825,2.839344 8.06738,4.259017 6.17979,0.87323 7.41473,-7.866317 1.23493,-8.739547 v 0 c -3.10077,0.514963 -6.20153,1.02993 -9.30231,1.544894 -14.8135,1.076957 -23.90519,1.581888 -39.82258,3.731609 -10.551488,1.425032 -21.027731,3.360623 -31.545795,5.014372 -24.446997,3.843788 -32.749566,6.608885 -56.568219,5.00152 -3.535754,-0.238607 -6.872127,-1.734312 -10.30819,-2.601468 -9.321912,0 -9.321912,13.183174 0,13.183174 z"
       id="path266"
       style="fill:#000000;fill-opacity:1;fill-rule:nonzero;stroke:none;stroke-width:0.264583" />
  </g>
</svg>
